<svg width="79" height="104" viewBox="0 0 79 104" fill="none" xmlns="http://www.w3.org/2000/svg">
<path d="M39.6577 56.5C38.4864 56.5 37.3327 56.3776 36.1964 56.1504C35.0601 55.9231 33.9413 55.591 32.8574 55.1364C31.7736 54.6819 30.7596 54.14 29.7807 53.4932C28.8192 52.8464 27.9102 52.1122 27.0885 51.2905C26.2669 50.4689 25.5327 49.5774 24.8859 48.5984C24.2391 47.6369 23.6971 46.6055 23.2426 45.5217C22.7881 44.4378 22.456 43.3365 22.2287 42.1827C22.0014 41.0464 21.8791 39.8926 21.8791 38.7214C21.8791 37.5501 22.0014 36.3963 22.2287 35.2601C22.456 34.1238 22.7881 33.005 23.2426 31.9211C23.6971 30.8373 24.2391 29.8233 24.8859 28.8444C25.5327 27.8829 26.2669 26.9739 27.0885 26.1522C27.9102 25.3306 28.8017 24.5964 29.7807 23.9496C30.7422 23.3028 31.7736 22.7608 32.8574 22.3063C33.9413 21.8518 35.0426 21.5196 36.1964 21.2924C37.3327 21.0651 38.4864 20.9428 39.6577 20.9428C40.8289 20.9428 41.9827 21.0651 43.119 21.2924C44.2553 21.5196 45.3741 21.8518 46.458 22.3063C47.5418 22.7608 48.5557 23.3028 49.5347 23.9496C50.4962 24.5964 51.4052 25.3306 52.2268 26.1522C53.0485 26.9739 53.7827 27.8654 54.4295 28.8444C55.0763 29.8058 55.6182 30.8373 56.0728 31.9211C56.5273 33.005 56.8594 34.1063 57.0867 35.2601C57.3139 36.3963 57.4363 37.5501 57.4363 38.7214C57.4363 39.8926 57.3139 41.0464 57.0867 42.1827C56.8594 43.319 56.5273 44.4378 56.0728 45.5042C55.6182 46.588 55.0763 47.602 54.4295 48.5809C53.7827 49.5424 53.0485 50.4514 52.2268 51.273C51.4052 52.0947 50.5137 52.8289 49.5347 53.4757C48.5732 54.1225 47.5418 54.6645 46.458 55.119C45.3741 55.5735 44.2728 55.9056 43.1365 56.1329C41.9827 56.3776 40.8289 56.5 39.6577 56.5ZM39.6577 0C38.3815 0 37.1229 0.0699257 35.8642 0.192296C34.6055 0.314666 33.3469 0.506962 32.1057 0.751702C30.8645 0.996442 29.6408 1.31111 28.4171 1.67822C27.2109 2.04533 26.0047 2.48236 24.8334 2.95436C23.6622 3.44384 22.5084 3.98577 21.4071 4.58014C20.2883 5.1745 19.2044 5.8388 18.1555 6.53806C17.1066 7.23731 16.0752 8.0065 15.0963 8.81064C14.1173 9.61479 13.1733 10.4714 12.2818 11.3629C11.3902 12.2545 10.5336 13.1985 9.72947 14.1774C8.92532 15.1564 8.17362 16.1703 7.45688 17.2367C6.75762 18.2856 6.09333 19.3694 5.49896 20.4882C4.90459 21.6071 4.36267 22.7433 3.87319 23.9146C3.38371 25.0859 2.96415 26.2746 2.59704 27.4983C2.22993 28.7045 1.91527 29.9457 1.67053 31.1869C1.42579 32.4281 1.23349 33.6867 1.11112 34.9454C0.988749 36.2041 0.918823 37.4802 0.918823 38.7389C0.918823 66.5518 37.018 101.392 38.5389 102.861C38.8535 103.158 39.2206 103.315 39.6577 103.315C40.0947 103.315 40.4618 103.158 40.7765 102.861C42.2974 101.392 78.3965 66.5518 78.3965 38.7389C78.3965 37.4627 78.3266 36.2041 78.2042 34.9454C78.0819 33.6867 77.8896 32.4281 77.6448 31.1869C77.4001 29.9457 77.0854 28.722 76.7183 27.4983C76.3512 26.2921 75.9142 25.0859 75.4422 23.9146C74.9527 22.7433 74.4108 21.5896 73.8164 20.4882C73.222 19.3694 72.5577 18.2856 71.8585 17.2367C71.1592 16.1878 70.39 15.1564 69.5859 14.1774C68.7818 13.1985 67.9252 12.2545 67.0336 11.3629C66.1421 10.4714 65.1981 9.61479 64.2191 8.81064C63.2401 8.0065 62.2262 7.2548 61.1598 6.53806C60.0935 5.82132 59.0271 5.1745 57.9083 4.58014C56.7895 3.98577 55.6532 3.44384 54.4819 2.95436C53.3107 2.46488 52.1219 2.04533 50.8982 1.67822C49.6745 1.31111 48.4508 0.996442 47.2097 0.751702C45.9685 0.506962 44.7098 0.314666 43.4512 0.192296C42.1925 0.0699257 40.9163 0 39.6577 0Z" fill="white"/>
</svg>
